<svg xmlns="http://www.w3.org/2000/svg" width="61" height="52" fill="none"><path stroke="#fff" stroke-linecap="square" stroke-width="4" d="M31.6 2h3.333C42.89 2 58.8 6.8 58.8 26S42.889 50 34.933 50H31.6V26m0-24v24m0-24L15.503 26M2 50v-3.867L15.503 26M31.6 26H15.503"/><path fill="#fff" d="m36.142 5 .472.163.229-.663h-.701V5Zm3.17.361.111-.487-.975-.223-.11.488.974.222ZM34 11.25a.722.722 0 0 0 .432-.152c.098-.073.178-.164.242-.25.127-.171.244-.395.35-.631.216-.48.433-1.116.634-1.767.203-.655.396-1.345.561-1.936.168-.601.303-1.084.395-1.351l-.945-.326c-.104.303-.25.823-.413 1.407-.166.594-.355 1.27-.553 1.91-.2.644-.402 1.232-.59 1.653-.096.213-.178.36-.242.444-.031.043-.045.052-.038.046A.285.285 0 0 1 34 10.25v1Zm0 7.25c.425 0 .757-.294.987-.562.25-.293.493-.693.727-1.152.47-.923.952-2.177 1.406-3.533.912-2.719 1.742-5.923 2.192-7.892l-.975-.222c-.445 1.948-1.267 5.118-2.165 7.796-.45 1.341-.912 2.54-1.349 3.396-.22.43-.42.751-.597.957-.196.23-.271.212-.226.212v1Zm2.142-14H34v1h2.142v-1ZM36.142 47l.472-.163.229.663h-.701V47Zm3.17-.361.111.487-.975.223-.11-.488.974-.222ZM34 40.75c.187 0 .334.078.432.152.098.073.178.164.242.25.127.171.244.395.35.631.216.48.433 1.116.634 1.767.203.655.396 1.345.561 1.937.168.6.303 1.083.395 1.35l-.945.326c-.104-.303-.25-.823-.413-1.407a74.147 74.147 0 0 0-.553-1.91c-.2-.644-.402-1.232-.59-1.653a2.528 2.528 0 0 0-.242-.444c-.031-.043-.045-.052-.038-.047a.285.285 0 0 0 .167.048v-1Zm0-7.25c.425 0 .757.294.987.562.25.293.493.693.727 1.152.47.923.952 2.177 1.406 3.533.912 2.719 1.742 5.923 2.192 7.892l-.975.222c-.445-1.948-1.267-5.118-2.165-7.796-.45-1.341-.912-2.54-1.349-3.396-.22-.43-.42-.751-.597-.957-.196-.23-.271-.212-.226-.212v-1Zm2.142 14H34v-1h2.142v1Z"/><path stroke="#fff" stroke-linecap="square" d="M45.016 8.177c-1.997 3.542-6.43 11.602-5.356 12.675 1.073 1.073 9.025-3.467 12.427-5.604m-4.825-5.178c-.452 1.158-2.96 5.17-2.476 5.655.485.485 4.497-2.023 5.58-2.551l-3.104-3.104ZM52.087 37.016c-3.542-1.997-11.602-6.43-12.676-5.356-1.073 1.073 3.468 9.025 5.605 12.427m5.178-4.825c-1.159-.452-5.172-2.96-5.656-2.476-.485.485 2.024 4.497 2.552 5.58l3.104-3.104ZM54.75 21.193C50.833 22.286 42 24.851 42 26.37c0 1.518 8.833 3.93 12.75 4.824M55 24.12c-1.139.5-5.75 1.563-5.75 2.249 0 .685 4.611 1.749 5.75 2.141v-4.39Z"/><path stroke="#fff" d="M34 31c2.21 0 4-2.015 4-4.5S36.21 22 34 22"/></svg>