<svg xmlns="http://www.w3.org/2000/svg" aria-hidden="true" style="position:absolute;width:0;height:0;overflow:hidden"><defs><symbol id="icon-arrow-modal-online" viewBox="0 0 18 32"><path fill="none" stroke="#fff" stroke-width="2.286" d="M2.286 29.714 16 16 2.286 2.286" style="stroke:var(--color1, #fff)"/></symbol><symbol id="icon-arrow-to-down-black" viewBox="0 0 56 32"><path stroke-width="4" d="m4 4 24 24L52 4"/></symbol><symbol id="icon-arrow-to-down-white" viewBox="0 0 56 32"><path fill="none" stroke="#fff" stroke-width="4" d="m4 4 24 24L52 4" style="stroke:var(--color1, #fff)"/></symbol><symbol id="icon-arrow-to-left" viewBox="0 0 37 32"><path stroke-width="2.667" d="M16.647 26.399 5.333 15.085m0 0L16.647 3.771M5.333 15.085h30.17"/></symbol><symbol id="icon-arrow-to-right-black-modal-without-call" viewBox="0 0 18 32"><path stroke-width="2.286" d="M2.286 29.714 16 16 2.286 2.286"/></symbol><symbol id="icon-arrow-to-right" viewBox="0 0 42 32"><path stroke-width="3.2" d="M22.627 29.576 36.203 16m.001 0L22.628 2.424M36.204 16H0"/></symbol><symbol id="icon-facebook" viewBox="0 0 32 32"><path d="M0 0h32v32H0V0z"/></symbol><symbol id="icon-fuel" viewBox="0 0 32 32"><path d="M0 0h32v32H0V0z"/></symbol><symbol id="icon-in-account" viewBox="0 0 32 32"><path d="M32 16c0 8.837-7.163 16-16 16S0 24.837 0 16 7.163 0 16 0s16 7.163 16 16z"/></symbol><symbol id="icon-instagram" viewBox="0 0 32 32"><path d="M0 0h32v32H0V0z"/></symbol><symbol id="icon-logo" viewBox="0 0 70 32"><path fill="#fff" d="m22.241 3.077.291.1.141-.408h-.431v.308zm1.951.222.069-.3-.6-.137-.069.3.6.137zm-3.269 3.624c.115 0 .206-.048.266-.093s.11-.101.149-.154c.078-.105.15-.243.216-.389.133-.295.266-.686.39-1.087.125-.403.244-.828.345-1.192.103-.37.187-.667.243-.831l-.582-.201c-.064.186-.154.507-.254.866-.102.365-.219.782-.34 1.175a9.775 9.775 0 0 1-.363 1.017 1.547 1.547 0 0 1-.148.273c-.02.026-.028.032-.024.029s.04-.029.103-.029v.615zm0 4.462c.261 0 .466-.181.607-.346.154-.18.304-.426.448-.709.29-.568.586-1.34.865-2.174.561-1.673 1.072-3.645 1.349-4.856l-.6-.137c-.274 1.199-.78 3.15-1.332 4.798-.277.826-.561 1.563-.83 2.09a3.152 3.152 0 0 1-.367.589c-.121.142-.167.131-.139.131v.615zm1.318-8.616h-1.318v.615h1.318v-.615zM22.241 28.923l.291-.1.141.408h-.431v-.308zm1.951-.222.069.3-.6.137-.069-.3.6-.137zm-3.269-3.624c.115 0 .206.048.266.093s.11.101.149.154c.078.105.15.243.216.389.133.295.266.686.39 1.087.125.403.244.828.345 1.192.103.37.187.667.243.831l-.582.201a18.784 18.784 0 0 1-.254-.866 47.626 47.626 0 0 0-.34-1.175 9.775 9.775 0 0 0-.363-1.017 1.547 1.547 0 0 0-.148-.273c-.02-.026-.028-.032-.024-.029s.04.029.103.029v-.615zm0-4.462c.261 0 .466.181.607.346.154.18.304.426.448.709.29.568.586 1.34.865 2.174.561 1.673 1.072 3.645 1.349 4.856l-.6.137c-.274-1.199-.78-3.15-1.332-4.798-.277-.826-.561-1.563-.83-2.09a3.152 3.152 0 0 0-.367-.589c-.121-.142-.167-.131-.139-.131v-.615zm1.318 8.616h-1.318v-.615h1.318v.615z" style="fill:var(--color1, #fff)"/><path fill="none" stroke="#fff" stroke-linecap="square" stroke-width=".615" d="M27.702 5.032c-1.229 2.18-3.957 7.14-3.296 7.8s5.554-2.134 7.647-3.449m-2.969-3.186c-.278.713-1.822 3.182-1.524 3.481s2.768-1.245 3.434-1.57l-1.91-1.91zM32.053 22.779c-2.18-1.229-7.14-3.957-7.8-3.296s2.134 5.554 3.449 7.647m3.187-2.969c-.713-.278-3.182-1.822-3.481-1.524s1.245 2.768 1.57 3.434l1.91-1.91zM33.692 13.042c-2.41.672-7.846 2.251-7.846 3.185s5.436 2.419 7.846 2.969m.154-4.353c-.701.307-3.538.962-3.538 1.384s2.838 1.076 3.538 1.318v-2.702z" style="stroke:var(--color1, #fff)"/><path fill="none" stroke="#fff" stroke-width=".615" d="M20.923 19.077c1.359 0 2.462-1.24 2.462-2.769s-1.102-2.769-2.462-2.769" style="stroke:var(--color1, #fff)"/><path fill="none" stroke="#fff" stroke-linecap="square" stroke-width="2.462" d="M19.446 1.231h2.051c4.896 0 14.687 2.954 14.687 14.769s-9.791 14.769-14.687 14.769h-2.051V16m0-14.769V16m0-14.769L9.54 16M1.231 30.769v-2.38l8.31-12.39m9.905.001H9.54" style="stroke:var(--color1, #fff)"/><path fill="#fff" d="m51.458 8.404-2.025 4.928c-.023.069-.063.123-.121.164s-.118.06-.181.06c-.109 0-.19-.029-.241-.086s-.078-.126-.078-.207a.26.26 0 0 1 .017-.129l2.231-5.428a.316.316 0 0 1 .129-.172.335.335 0 0 1 .207-.052c.075 0 .141.02.198.06.063.04.106.095.129.164l2.223 5.376a.396.396 0 0 1 .026.138.323.323 0 0 1-.103.25.356.356 0 0 1-.233.086c-.069 0-.132-.02-.19-.06s-.1-.098-.129-.172l-2.05-4.928.19.009zm-1.593 3.523.293-.672h2.559l.129.672h-2.981zm8.182-2.843c.103 0 .187.034.25.103a.328.328 0 0 1 .095.241v2.352c0 .58-.164 1.031-.491 1.353-.322.316-.773.474-1.353.474-.574 0-1.025-.158-1.353-.474-.322-.322-.482-.772-.482-1.353V9.428a.34.34 0 0 1 .345-.344c.103 0 .187.034.25.103a.328.328 0 0 1 .095.241v2.352c0 .391.101.686.302.887s.482.302.844.302c.373 0 .658-.101.853-.302.201-.201.302-.497.302-.887V9.428a.34.34 0 0 1 .345-.344zm1.449.026h2.025a.29.29 0 0 1 .224.095.307.307 0 0 1 .095.224.32.32 0 0 1-.095.233.305.305 0 0 1-.224.086h-2.025c-.086 0-.161-.032-.224-.095s-.095-.141-.095-.233c0-.086.032-.158.095-.215a.307.307 0 0 1 .224-.095zm.905-1.172c.098 0 .178.034.241.103a.328.328 0 0 1 .095.241v4.161c0 .138.02.241.06.31s.092.118.155.146a.625.625 0 0 0 .198.034.374.374 0 0 0 .146-.026c.046-.023.098-.034.155-.034s.109.029.155.086a.28.28 0 0 1 .078.207c0 .103-.06.192-.181.267a.803.803 0 0 1-.405.103c-.08 0-.181-.006-.302-.017-.115-.011-.23-.049-.345-.112s-.213-.167-.293-.31c-.075-.149-.112-.356-.112-.62V8.281c0-.098.034-.178.103-.241a.34.34 0 0 1 .25-.103zm6.585 3.36c0 .448-.1.847-.302 1.198a2.172 2.172 0 0 1-1.93 1.129c-.42 0-.798-.101-1.137-.302a2.248 2.248 0 0 1-.81-.827c-.195-.35-.293-.75-.293-1.198s.098-.847.293-1.198c.201-.35.471-.626.81-.827s.718-.302 1.137-.302a2.172 2.172 0 0 1 1.93 1.129c.201.35.302.75.302 1.198zm-.689 0c0-.333-.069-.626-.207-.879a1.484 1.484 0 0 0-1.335-.809 1.5 1.5 0 0 0-.793.215c-.23.144-.414.342-.551.594s-.207.546-.207.879c0 .327.069.617.207.87s.322.454.551.603c.236.144.5.215.793.215s.554-.072.784-.215c.236-.149.42-.35.551-.603.138-.253.207-.543.207-.87zm-14.425 7.287a2.4 2.4 0 0 1 1.103.241c.322.155.589.373.801.655s.37.606.474.974c.109.362.164.744.164 1.146 0 .551-.095 1.057-.284 1.516-.19.454-.471.818-.844 1.094-.373.27-.844.405-1.413.405h-2.154a.34.34 0 0 1-.25-.103.357.357 0 0 1-.095-.25V18.93a.34.34 0 0 1 .345-.344h2.154zm-.086 5.358c.442 0 .801-.106 1.077-.319.281-.212.485-.497.612-.853.132-.356.198-.747.198-1.172 0-.31-.037-.606-.112-.887a2.169 2.169 0 0 0-.336-.758 1.592 1.592 0 0 0-.586-.517 1.788 1.788 0 0 0-.853-.19H50.02l.069-.069v4.85l-.052-.086h1.749zm3.995.672a.34.34 0 0 1-.25-.103.357.357 0 0 1-.095-.25v-3.756a.34.34 0 0 1 .345-.344c.103 0 .187.034.25.103a.328.328 0 0 1 .095.241v1.137l-.103-.181a1.809 1.809 0 0 1 .526-.974c.138-.138.296-.244.474-.319.178-.08.373-.121.586-.121.126 0 .241.032.345.095.109.057.164.141.164.25 0 .121-.032.21-.095.267s-.135.086-.215.086a.547.547 0 0 1-.215-.043.58.58 0 0 0-.258-.052.87.87 0 0 0-.431.121 1.372 1.372 0 0 0-.388.327c-.115.144-.21.307-.284.491-.069.178-.103.37-.103.577v2.094a.34.34 0 0 1-.103.25.312.312 0 0 1-.241.103zm3.777-.353a.34.34 0 0 1-.103.25.312.312 0 0 1-.241.103c-.103 0-.187-.034-.25-.103s-.095-.152-.095-.25v-3.825a.34.34 0 0 1 .345-.344c.098 0 .178.034.241.103a.312.312 0 0 1 .103.241v3.825zm-.344-4.747c-.144 0-.25-.029-.319-.086s-.103-.146-.103-.267v-.121c0-.121.037-.21.112-.267s.181-.086.319-.086.241.029.31.086c.069.057.103.146.103.267v.121c0 .121-.037.21-.112.267-.069.057-.172.086-.31.086zm1.582.569c.069 0 .135.02.198.06a.304.304 0 0 1 .138.155l1.43 3.36-.138.069 1.456-3.42c.063-.155.169-.23.319-.224.086 0 .161.029.224.086s.095.129.095.215a.337.337 0 0 1-.017.103.34.34 0 0 1-.026.078l-1.663 3.825c-.063.144-.164.218-.302.224a.404.404 0 0 1-.215-.043.34.34 0 0 1-.138-.181l-1.663-3.817a1.005 1.005 0 0 1-.034-.078.512.512 0 0 1-.009-.103c0-.075.029-.144.086-.207a.332.332 0 0 1 .258-.103zm6.67 4.618c-.46 0-.862-.098-1.206-.293s-.615-.462-.81-.801a2.423 2.423 0 0 1-.284-1.189c0-.5.098-.925.293-1.275.201-.356.46-.626.775-.81.322-.19.66-.284 1.017-.284.264 0 .52.049.767.146s.465.241.655.431c.19.184.342.408.457.672.115.258.175.549.181.87 0 .092-.034.169-.103.233s-.15.095-.241.095h-3.403l-.155-.594h3.317l-.138.121v-.19a1.089 1.089 0 0 0-.241-.603 1.322 1.322 0 0 0-.491-.396 1.366 1.366 0 0 0-.603-.138c-.172 0-.345.032-.517.095a1.187 1.187 0 0 0-.457.293 1.53 1.53 0 0 0-.327.517 2.155 2.155 0 0 0-.121.767c0 .333.066.626.198.879.138.253.327.454.569.603.241.144.522.215.844.215.201 0 .376-.026.526-.078s.279-.115.388-.19a2 2 0 0 0 .276-.241.377.377 0 0 1 .215-.078c.086 0 .155.029.207.086a.282.282 0 0 1 .086.207c0 .098-.046.184-.138.258a2.193 2.193 0 0 1-.655.474 2.012 2.012 0 0 1-.879.198z" style="fill:var(--color1, #fff)"/></symbol><symbol id="icon-moon" viewBox="0 0 32 32"><path d="M30.533 16c0 8.1-6.731 14.667-15.033 14.667S.467 24.101.467 16C.467 7.9 7.198 1.333 15.5 1.333S30.533 7.899 30.533 16z"/></symbol><symbol id="icon-motor" viewBox="0 0 32 32"><path d="M0 0h32v32H0V0z"/></symbol><symbol id="icon-search" viewBox="0 0 32 32"><path d="M0 0h32v32H0V0z"/></symbol><symbol id="icon-seats" viewBox="0 0 32 32"><path d="M0 0h32v32H0V0z"/></symbol><symbol id="icon-sun" viewBox="0 0 32 32"><path d="M31.533 16c0 8.1-6.731 14.667-15.033 14.667S1.467 24.1 1.467 16 8.198 1.333 16.5 1.333 31.533 7.899 31.533 16z"/></symbol><symbol id="icon-telegram" viewBox="0 0 32 32"><path d="M0 0h32v32H0V0z"/></symbol><symbol id="icon-twitter" viewBox="0 0 32 32"><path d="M0 0h32v32H0V0z"/></symbol><symbol id="icon-wheel" viewBox="0 0 32 32"><path d="M0 0h32v32H0V0z"/></symbol></defs></svg>